<?xml version="1.0" encoding="utf-8"?>
<!-- Generator: Adobe Illustrator 21.1.0, SVG Export Plug-In . SVG Version: 6.00 Build 0)  -->
<svg xmlns="http://www.w3.org/2000/svg" width="570" height="366" viewBox="0 0 570 366"><defs><style>.a{fill:#fff;}.ad,.b{fill:#0c97fa;}.b{opacity:0.051;}.c{fill:#4a4343;}.d{fill:#363030;}.e{fill:#91a5b4;}.f{fill:#7a6e6e;}.g{fill:#5c5353;}.h{fill:#474040;}.i{opacity:0.1;}.j{fill:#0e578c;}.k{fill:#15161c;}.l{fill:#ffc782;}.m{fill:#2172ab;}.n{fill:#2b1b00;}.o{fill:#6e818f;}.p{fill:#7b92a4;}.q{fill:#ff351c;}.r{fill:#ffcd34;}.s{fill:#4a2e00;}.t{fill:#301e00;}.u{fill:#bd483a;}.v{fill:#a69595;}.w{fill:#ff624f;}.x{fill:#a64f44;}.y{fill:#844d00;}.z{fill:#e8b576;}.aa{fill:#693d00;}.ab{fill:#b3eaeb;}.ac{fill:#a1b7c7;}.ae{fill:#cc4e3f;}.af{fill:#1685d4;}.ag{fill:#7f7272;}.ah{fill:#635959;}.ai{fill:#22c2d2;}.aj{fill:#33ccdb;}.ak{fill:#ffbd66;}.al{fill:#eaad5d;}.am{fill:#b03700;}.an{fill:#d44100;}.ao{fill:#86a700;}.ap{fill:#ffb114;}.aq{fill:#6b4615;}.ar{fill:#1cacbb;}.as{fill:#22737b;}</style></defs><g transform="translate(-375 -2242)"><rect class="a" width="570" height="366" transform="translate(375 2242)"/><g transform="translate(637.374 2431.848)"><path class="b" d="M190.8-139.5c37.5,34.4,36,112.7,6.9,162.4C168.7,72.7,112.1,94,60,115.6,8,137.2-39.6,159.2-80.1,147.1c-40.4-12.1-73.8-58.3-86.5-110.2s-4.7-109.5,26.5-142.5c31.2-32.9,85.6-41.2,151.2-50C76.6-164.4,153.2-173.9,190.8-139.5Z" transform="translate(0 1)"/></g><g transform="translate(501.494 2273.1)"><circle class="c" cx="35.211" cy="35.211" r="35.211" transform="matrix(0.596, -0.803, 0.803, 0.596, -13.494, 268.413)"/><circle class="d" cx="21.584" cy="21.584" r="21.584" transform="translate(9.788 277.214) rotate(-76.714)"/><circle class="e" cx="17.56" cy="17.56" r="17.56" transform="translate(18.236 243.544)"/><g transform="translate(30.013 230.718)"><path class="f" d="M34.647,280.559,45.9,255.5a5.778,5.778,0,0,1,7.682-2.652h0a5.778,5.778,0,0,1,2.652,7.682L44.981,285.589a5.778,5.778,0,0,1-7.682,2.652h0A5.778,5.778,0,0,1,34.647,280.559Z" transform="translate(-34.077 -252.277)"/><path class="g" d="M38.06,289a4.52,4.52,0,1,1,3.933-8.14,4.575,4.575,0,0,1,2.1,6.036A4.47,4.47,0,0,1,38.06,289Z" transform="translate(-34.198 -254.678)"/><path class="h" d="M44.1,287.116a5.552,5.552,0,0,0,.457-1.646,4.593,4.593,0,0,1-5.945,1.921A4.517,4.517,0,0,1,36.048,283c0,.091-.091.091-.091.183a4.52,4.52,0,1,0,8.14,3.933Z" transform="translate(-34.198 -254.901)"/></g><path class="i" d="M32.6,247.365A35.474,35.474,0,0,0,9,261.815H45.766c3.933,0,6.311,4.573,8.688,7.682s4.39,6.585,7.225,9.42a21.069,21.069,0,0,0,11.158,5.67,33.508,33.508,0,0,0-.274-7.408A35.267,35.267,0,0,0,32.6,247.365Z" transform="translate(-1.922 -21.106)"/><path class="j" d="M58.25,231.254c-11.249-1.829-22.956-2.561-33.931.64C13.344,235.186,3.284,243.052-.1,253.935H46.452c3.933,0,6.311,4.573,8.688,7.682s4.39,6.585,7.225,9.42a21.758,21.758,0,0,0,23.23,4.39c-3.11-5.3-4.481-12.347-6.4-18.2-1.829-5.853-3.933-11.707-7.5-16.645C68.219,235.644,64.286,232.26,58.25,231.254Z" transform="translate(-1.144 -19.629)"/><path class="k" d="M84.06,261.427c-6.768-4.664-10.975-12.072-10.975-23.6v-.091a18.918,18.918,0,0,0-11.249-6.585A101.8,101.8,0,0,0,40.8,229.691a62.635,62.635,0,0,1,28.9,29.815l4.573,9.877a16.613,16.613,0,0,0,7.225,7.591,20.683,20.683,0,0,0,7.774-1.555C86.8,271.4,85.431,266.274,84.06,261.427Z" transform="translate(-4.638 -19.621)"/><circle class="c" cx="35.211" cy="35.211" r="35.211" transform="translate(194.384 225.892)"/><circle class="d" cx="21.584" cy="21.584" r="21.584" transform="translate(201.303 249.608) rotate(-22.842)"/><circle class="e" cx="17.56" cy="17.56" r="17.56" transform="translate(212.036 243.544)"/><g transform="translate(172.816 232.676)"><path class="f" d="M241.967,295.192l-43.351-15.914a12.8,12.8,0,0,1-7.591-16.462h0a12.8,12.8,0,0,1,16.462-7.591l43.351,15.914a12.8,12.8,0,0,1,7.591,16.462h0A12.809,12.809,0,0,1,241.967,295.192Z" transform="translate(-190.217 -254.417)"/><path class="g" d="M258.966,288.23a10.127,10.127,0,1,1-6.036-12.987A10.175,10.175,0,0,1,258.966,288.23Z" transform="translate(-194.413 -256.144)"/><path class="g" d="M233.284,282.491a5.614,5.614,0,1,1-3.292-7.225A5.737,5.737,0,0,1,233.284,282.491Z" transform="translate(-192.967 -256.167)"/><path class="c" d="M253.508,275.24a11.289,11.289,0,0,0-3.841-.64,10.164,10.164,0,0,1,5.579,12.8,10,10,0,0,1-9.146,6.585c.183.091.274.183.457.183a10.084,10.084,0,1,0,6.951-18.932Z" transform="translate(-194.991 -256.141)"/></g><path class="j" d="M83.2,270.3l4.481,7.591a14.964,14.964,0,0,0,12.9,7.317H177.4a15.351,15.351,0,0,0,10.06-3.841l7.591-6.859-23.779.64s-17.1,5.213-18.566,5.213c-1.555,0-40.882-1.555-40.882-1.555Z" transform="translate(-8.26 -23.098)"/><rect class="l" width="12.804" height="18.017" transform="translate(131.689 51.823) rotate(-21.544)"/><ellipse class="l" cx="21.127" cy="22.316" rx="21.127" ry="22.316" transform="translate(108.534 24.479) rotate(-21.544)"/><path class="m" d="M155.077,71.738a5.92,5.92,0,0,0-8.323,3.292L138.523,97.9a31.564,31.564,0,0,1-19.206,19.115l-20.3,7.042a3.025,3.025,0,0,0-1.829,3.841l2.012,5.579a2.879,2.879,0,0,0,3.75,1.738l20.212-7.134a43.214,43.214,0,0,0,26.431-26.248l8.231-22.682A5.959,5.959,0,0,0,155.077,71.738Z" transform="translate(-9.44 -6.08)"/><path class="n" d="M115.832,260.567a6.75,6.75,0,0,1-1.555,5.67,14.514,14.514,0,0,1-4.847,3.567,31.945,31.945,0,0,1-11.981,3.2c-1.463.091-3.2.274-3.658,1.646a2.519,2.519,0,0,0,1.372,2.835,6.965,6.965,0,0,0,3.384.549c10.426-.091,20.761-.274,31.187-.366,1.28,0,2.744-.091,3.475-1.1s.457-2.378.183-3.658c-1.28-4.756-2.652-9.512-4.116-14.176A12.349,12.349,0,0,0,122.783,257a16.86,16.86,0,0,0-3.75.274A6.257,6.257,0,0,0,115.832,260.567Z" transform="translate(-9.156 -21.962)"/><path class="o" d="M122.619,165.591h0L100.76,165.5h0a12.14,12.14,0,0,0-11.524,16.1l25.151,74.9h17.1l-22.956-67.953a5.213,5.213,0,0,1,4.939-6.859h39.6a18.393,18.393,0,0,0,18.2-16.1H122.619Z" transform="translate(-8.718 -14.146)"/><rect class="p" width="21.401" height="5.487" transform="translate(103.567 236.959)"/><path class="q" d="M277.466,223.8H266.4V201.3h6.036a13.833,13.833,0,0,1,10.792,5.213l1.555,1.921A9.415,9.415,0,0,1,277.466,223.8Z" transform="translate(-23.909 -17.204)"/><path class="r" d="M79.148,124.35l-3.933-3.75s-6.859,11.89,0,21.767Z" transform="translate(-7.317 -10.31)"/><path class="i" d="M282.221,282.211A35.207,35.207,0,0,0,220.4,259.164l-12.8-4.664a12.819,12.819,0,1,0-8.871,24.053l10.06,3.658,73.441.091Z" transform="translate(-17.414 -21.108)"/><path class="s" d="M204.481,174.9H171.008A14.91,14.91,0,0,0,156.1,189.808V198.5h63.289v-8.688A14.91,14.91,0,0,0,204.481,174.9Z" transform="translate(-14.487 -14.949)"/><path class="t" d="M156.366,187.7a12.278,12.278,0,0,0-.366,3.2v8.688h63.289V190.9a12.278,12.278,0,0,0-.366-3.2Z" transform="translate(-14.478 -16.042)"/><path class="j" d="M88.213,160.626c1.28-1.1,7.408-7.682,7.408-7.682l4.756-12.987s4.481-11.615-.274-16.462c-4.756-4.756-24.6-2.927-24.6-2.927v21.767s10.335-.823,10.335,9.054C85.835,161.175,88.213,160.626,88.213,160.626Z" transform="translate(-7.602 -10.278)"/><path class="u" d="M102.155,133.728a6.128,6.128,0,1,1-6.128-6.128A6.128,6.128,0,0,1,102.155,133.728Z" transform="translate(-8.832 -10.908)"/><path class="j" d="M93.237,155.855,83.451,154.3,48.7,210.729l-1.1,12.438h0a62.582,62.582,0,0,1,29.175,29.907l4.573,9.877a16.42,16.42,0,0,0,14.816,9.512h77.19a20.549,20.549,0,0,0,14.176-5.762c6.311-6.219,15.639-15.091,16.1-14.908.823.274,83.5,0,83.5,0h0a104.641,104.641,0,0,0-29.541-48.381l-2.652-2.469A17.848,17.848,0,0,0,242.68,196.1H146.74v10.335s17.468,12.164,17.468,27.072c0,14.816-1.829,29.632-28.078,29.632s-55.881-1.28-55.881-31.827S93.237,155.855,93.237,155.855Z" transform="translate(-5.219 -13.189)"/><path class="j" d="M264.286,204.847A17.848,17.848,0,0,0,252.031,200H156v5.945H265.475Z" transform="translate(-14.478 -17.093)"/><path class="j" d="M293.4,272.667a8.006,8.006,0,0,0,7.957-8.963,57.407,57.407,0,0,0-8.414-23.23c-6.036-9.6-14.542-17.468-23.962-23.688-11.341-7.5-24.419-12.713-38.046-12.987-13.536-.274-27.529,4.847-36.309,15.273-6.036,7.134-9.237,16.371-10.152,25.7a74.3,74.3,0,0,0,.732,19.115,10.236,10.236,0,0,0,10.152,8.689Z" transform="translate(-16.883 -17.416)"/><path class="k" d="M210.527,272.475a10.306,10.306,0,0,1-10.152-8.689,74.451,74.451,0,0,1-.732-19.115c.915-9.329,4.116-18.566,10.152-25.7,6.859-8.231,17.1-13.17,27.712-14.725a54.755,54.755,0,0,0-6.676-.549c-13.536-.274-27.529,4.847-36.309,15.273-6.036,7.134-9.237,16.371-10.152,25.7a74.3,74.3,0,0,0,.732,19.115,10.236,10.236,0,0,0,10.152,8.689l98.134.091h.366Z" transform="translate(-16.875 -17.408)"/><path class="k" d="M114.912,265.647c9.329,1.189,18.749.183,27.986-1.189,7.042-1.006,14.725-2.652,18.84-8.414a15.668,15.668,0,0,0,2.469-5.3c-3.11,7.317-10.152,12.438-25.608,12.438-26.248,0-55.881-1.28-55.881-31.827,0-30.455,12.987-75.544,12.987-75.544L89.487,154.8a157.194,157.194,0,0,0-12.9,55.881c-.64,15.639,1.738,32.925,13.078,43.717C96.437,261.074,105.675,264.458,114.912,265.647Z" transform="translate(-7.687 -13.232)"/><g transform="translate(251.362 235.13)"><path class="k" d="M293.111,266.9l-15.914.823a1.038,1.038,0,0,1-1.1-1.006h0a1.038,1.038,0,0,1,1.006-1.1l15.914-.823a1.038,1.038,0,0,1,1.1,1.006h0A.981.981,0,0,1,293.111,266.9Z" transform="translate(-276.1 -257.758)"/><path class="k" d="M293.511,263l-15.914.823a1.038,1.038,0,0,1-1.1-1.006h0a1.038,1.038,0,0,1,1.006-1.1l15.914-.823a1.038,1.038,0,0,1,1.1,1.006h0A.942.942,0,0,1,293.511,263Z" transform="translate(-276.134 -257.425)"/><path class="k" d="M294.011,259.2l-15.914.823a1.038,1.038,0,0,1-1.1-1.006h0a1.038,1.038,0,0,1,1.006-1.1l15.914-.823a1.038,1.038,0,0,1,1.1,1.006h0A1.1,1.1,0,0,1,294.011,259.2Z" transform="translate(-276.177 -257.1)"/></g><path class="v" d="M89.972,128.15h0a1.363,1.363,0,0,1-1.646-1.006L75.8,76.842A1.363,1.363,0,0,1,76.8,75.2h0A1.363,1.363,0,0,1,78.449,76.2l12.53,50.3A1.363,1.363,0,0,1,89.972,128.15Z" transform="translate(-7.624 -6.428)"/><path class="w" d="M76.972,88.116h0A1.407,1.407,0,0,1,75.6,86.744V67.172A1.407,1.407,0,0,1,76.972,65.8h0a1.407,1.407,0,0,1,1.372,1.372V86.835A1.39,1.39,0,0,1,76.972,88.116Z" transform="translate(-7.611 -5.629)"/><path class="l" d="M106.1,130.63a4.864,4.864,0,0,1-3.567-.457c-1.1-.549-2.195-1.28-3.292-1.738a9.2,9.2,0,0,0-9.969,2.012,8.85,8.85,0,0,0,7.317,14.908,3.848,3.848,0,0,0,4.756-.274,12.12,12.12,0,0,0,2.012-3.11,5.546,5.546,0,0,1,2.469-2.744,9.22,9.22,0,0,1,2.286-.457,2.925,2.925,0,0,0,1.921-1.1,4.119,4.119,0,0,0-1.1-5.3c-.549-.366-1.1-.64-1.646-1.006C106.653,131.087,106.287,131.27,106.1,130.63Z" transform="translate(-8.574 -10.92)"/><circle class="x" cx="5.487" cy="5.487" r="5.487" transform="translate(81.708 120.716)"/><path class="s" d="M133.332,260.567a6.75,6.75,0,0,1-1.555,5.67,14.514,14.514,0,0,1-4.847,3.567,31.945,31.945,0,0,1-11.981,3.2c-1.463.091-3.2.274-3.658,1.646a2.519,2.519,0,0,0,1.372,2.835,6.965,6.965,0,0,0,3.384.549c10.426-.091,20.761-.274,31.187-.366,1.28,0,2.744-.091,3.475-1.1s.457-2.378.183-3.658c-1.28-4.756-2.652-9.512-4.116-14.176A12.349,12.349,0,0,0,140.283,257a16.86,16.86,0,0,0-3.75.274A6.257,6.257,0,0,0,133.332,260.567Z" transform="translate(-10.651 -21.962)"/><path class="e" d="M151.883,163.4l.274,1.921h-34.3a12.14,12.14,0,0,0-11.524,16.1l25.151,74.9h17.1l-22.956-67.953a5.213,5.213,0,0,1,4.939-6.859h39.6A18.388,18.388,0,0,0,188.557,163.4Z" transform="translate(-10.178 -13.966)"/><path class="i" d="M180.163,163.4c-1.28,8.688-6.219,15.639-15.548,15.639h-39.6a5.213,5.213,0,0,0-4.939,6.859l22.956,67.953H131.691l.823,2.561h17.1L126.66,188.459A5.213,5.213,0,0,1,131.6,181.6h39.6a18.388,18.388,0,0,0,18.383-18.109h-9.42Z" transform="translate(-11.387 -13.966)"/><path class="y" d="M125.66,23.965A10.318,10.318,0,0,1,115.6,31.19a13.774,13.774,0,0,0,11.341,3.2,5.034,5.034,0,0,1-2.378,2.744,21.121,21.121,0,0,0,18.932-4.024c.366-4.39-2.469-8.414-6.4-10.426A9.974,9.974,0,0,0,125.66,23.965Z" transform="translate(-11.027 -1.841)"/><path class="y" d="M148.6,52.693a18.326,18.326,0,0,0,18.657,10.518c-.366-.64-.64-1.28-1.006-1.829a36.164,36.164,0,0,0,12.713-3.567,13.631,13.631,0,0,1-3.75-11.615A52.876,52.876,0,0,0,148.6,52.693Z" transform="translate(-13.846 -3.955)"/><path class="z" d="M124.552,49.362A2.636,2.636,0,0,0,123,51.831a2.313,2.313,0,0,0,1.372,1.555,4.853,4.853,0,0,0,4.847-.274c1.28-.823,2.927-3.292,1.555-4.664C129.217,47.076,125.924,48.539,124.552,49.362Z" transform="translate(-11.657 -4.099)"/><path class="aa" d="M134.91,41.561c0,1.372-.64,2.561-1.555,2.561-.823,0-1.555-1.1-1.555-2.561,0-1.372.64-2.561,1.555-2.561C134.178,39,134.91,40.189,134.91,41.561Z" transform="translate(-12.411 -3.34)"/><g transform="translate(185.238 75.81)"><path class="ab" d="M222.457,89.668H207.184a3.376,3.376,0,0,1-3.384-3.384h0a3.376,3.376,0,0,1,3.384-3.384h15.273a3.376,3.376,0,0,1,3.384,3.384h0A3.5,3.5,0,0,1,222.457,89.668Z" transform="translate(-203.8 -82.9)"/><path class="ab" d="M240.749,106.968H207.184a3.376,3.376,0,0,1-3.384-3.384h0a3.376,3.376,0,0,1,3.384-3.384h33.565a3.376,3.376,0,0,1,3.384,3.384h0A3.5,3.5,0,0,1,240.749,106.968Z" transform="translate(-203.8 -84.378)"/><path class="ab" d="M222.457,124.268H207.184a3.376,3.376,0,0,1-3.384-3.384h0a3.376,3.376,0,0,1,3.384-3.384h15.273a3.376,3.376,0,0,1,3.384,3.384h0A3.435,3.435,0,0,1,222.457,124.268Z" transform="translate(-203.8 -85.856)"/><path class="ab" d="M249.895,141.668H207.184a3.376,3.376,0,0,1-3.384-3.384h0a3.376,3.376,0,0,1,3.384-3.384h42.711a3.376,3.376,0,0,1,3.384,3.384h0A3.5,3.5,0,0,1,249.895,141.668Z" transform="translate(-203.8 -87.342)"/></g><g transform="translate(282.184 183.09)"><path class="ab" d="M328.457,206.968H313.184a3.376,3.376,0,0,1-3.384-3.384h0a3.376,3.376,0,0,1,3.384-3.384h15.273a3.376,3.376,0,0,1,3.384,3.384h0A3.5,3.5,0,0,1,328.457,206.968Z" transform="translate(-309.8 -200.2)"/><path class="ab" d="M346.749,224.268H313.184a3.376,3.376,0,0,1-3.384-3.384h0a3.376,3.376,0,0,1,3.384-3.384h33.565a3.376,3.376,0,0,1,3.384,3.384h0A3.435,3.435,0,0,1,346.749,224.268Z" transform="translate(-309.8 -201.678)"/><path class="ab" d="M328.457,241.668H313.184a3.376,3.376,0,0,1-3.384-3.384h0a3.376,3.376,0,0,1,3.384-3.384h15.273a3.376,3.376,0,0,1,3.384,3.384h0A3.5,3.5,0,0,1,328.457,241.668Z" transform="translate(-309.8 -203.164)"/><path class="ab" d="M355.895,258.968H313.184a3.376,3.376,0,0,1-3.384-3.384h0a3.376,3.376,0,0,1,3.384-3.384h42.711a3.376,3.376,0,0,1,3.384,3.384h0A3.5,3.5,0,0,1,355.895,258.968Z" transform="translate(-309.8 -204.642)"/></g><rect class="ac" width="21.401" height="5.487" transform="translate(118.291 236.959)"/><g transform="translate(112.255 -0.1)"><path class="j" d="M125.189,24.319a17.663,17.663,0,0,0,3.292.549l1.921.274a9.489,9.489,0,0,1,5.67,2.744c1.463,1.646,2.1,4.024,1.829,6.951a26.394,26.394,0,0,1-.366,2.652,22.466,22.466,0,0,0-.366,3.384c0,4.573,3.2,9.054,7.865,11.158,4.116,1.921,9.329,2.012,14.725.457,5.03-1.555,9.877-4.664,14.085-7.5a1.3,1.3,0,0,1,.549-.183,27.809,27.809,0,0,0,5.487-16.737A28.093,28.093,0,0,0,124,23.862,4.594,4.594,0,0,0,125.189,24.319Z" transform="translate(-124 0.1)"/></g><path class="i" d="M153.495,0A28.454,28.454,0,0,0,143.8,1.738a28.154,28.154,0,0,1,25.7,27.986,27.809,27.809,0,0,1-5.487,16.737,1.3,1.3,0,0,0-.549.183,58.821,58.821,0,0,1-11.981,6.768,22.7,22.7,0,0,0,10.06-.915c5.03-1.555,9.877-4.664,14.085-7.5a1.3,1.3,0,0,1,.549-.183,27.809,27.809,0,0,0,5.487-16.737A28.162,28.162,0,0,0,153.495,0Z" transform="translate(-13.436 -0.009)"/><g transform="translate(111.09 23.941)"><path class="k" d="M174.833,47.508A1.4,1.4,0,0,0,173,47.326c-3.841,2.835-8.414,5.945-13.17,7.408-5.03,1.646-9.877,1.463-13.81-.457a13.011,13.011,0,0,1-7.408-11.158,22.466,22.466,0,0,1,.366-3.384,23.615,23.615,0,0,0,.274-2.652c.183-2.927-.366-5.3-1.738-6.951a8.484,8.484,0,0,0-5.3-2.744c-.549-.091-1.189-.183-1.829-.274a31.377,31.377,0,0,1-3.11-.549c-.274-.091-2.378-.183-2.652-.274a1.338,1.338,0,0,0-1.738.732h0a1.438,1.438,0,0,0,.732,2.012c.366.183,2.561.274,2.927.366a24.7,24.7,0,0,0,3.567.732l1.646.274a5.832,5.832,0,0,1,3.75,1.829,6.344,6.344,0,0,1,1.006,4.756c-.091.823-.183,1.555-.274,2.378a27.29,27.29,0,0,0-.366,3.841,15.782,15.782,0,0,0,9.054,13.81,18.19,18.19,0,0,0,3.11,1.189,22.256,22.256,0,0,0,12.621-.64c5.122-1.646,9.877-4.939,13.9-7.865A1.43,1.43,0,0,0,174.833,47.508Z" transform="translate(-122.726 -26.186)"/></g><path class="ad" d="M251.555,208.6s.823.366,2.286.915a20.233,20.233,0,0,1,2.652,1.189c.549.274,1.1.457,1.646.732s1.1.549,1.738.915c1.189.64,2.561,1.28,3.841,2.1,1.372.732,2.744,1.646,4.207,2.561,1.372.915,2.835,1.921,4.3,3.018,1.463,1.006,2.835,2.195,4.207,3.292,1.372,1.189,2.744,2.378,4.024,3.567s2.469,2.469,3.658,3.658c1.1,1.28,2.2,2.469,3.2,3.658a38.586,38.586,0,0,1,2.652,3.384c.366.549.823,1.1,1.189,1.555.366.549.64,1.006,1.006,1.463a20.661,20.661,0,0,1,1.555,2.378c.823,1.28,1.28,2.1,1.28,2.1s-.549-.732-1.463-2.012a25.56,25.56,0,0,0-1.738-2.195c-.366-.457-.732-.823-1.1-1.372-.366-.457-.823-.915-1.28-1.463-.823-1.006-1.829-2.012-2.927-3.11-1.006-1.1-2.195-2.195-3.384-3.292-1.28-1.1-2.469-2.286-3.841-3.292-1.28-1.1-2.744-2.1-4.207-3.2-1.463-1.006-2.927-2.012-4.39-2.927s-2.927-1.738-4.39-2.561c-1.463-.732-2.835-1.555-4.207-2.1-1.372-.64-2.652-1.189-3.841-1.738-.64-.274-1.189-.457-1.738-.732-.549-.183-1.1-.366-1.555-.549-1.006-.366-1.829-.64-2.561-.915-1.463-.457-2.378-.732-2.378-.732Z" transform="translate(-22.508 -17.827)"/><path class="ad" d="M191.9,155.282,181.015,82.756a18.225,18.225,0,0,0-36.034,5.487l10.06,67.13h.091l.274,1.555h36.217a9.4,9.4,0,0,0,.091-1.555h.183Z" transform="translate(-13.52 -5.757)"/><path class="i" d="M171.6,78.424a6.139,6.139,0,0,0-3.933-6.951,5.961,5.961,0,0,0-7.682,4.573l-4.573,23.87a30.978,30.978,0,0,1-6.311,13.719l2.195,14.542A43.159,43.159,0,0,0,167.026,102.2Z" transform="translate(-13.889 -6.09)"/><path class="i" d="M182.264,82.756A18.207,18.207,0,0,0,164.247,67.3a17.212,17.212,0,0,0-4.847.64,18.209,18.209,0,0,1,13.17,14.816l10.883,72.526h-.091a8.366,8.366,0,0,1-.091,1.555h9.6a9.4,9.4,0,0,0,.091-1.555h.091Z" transform="translate(-14.769 -5.757)"/><ellipse class="r" cx="2.744" cy="6.585" rx="2.744" ry="6.585" transform="translate(58.478 191.321)"/><path class="ae" d="M58.625,218.695H52.5a1.112,1.112,0,0,1-1.1-1.1h0a1.112,1.112,0,0,1,1.1-1.1h6.128a1.112,1.112,0,0,1,1.1,1.1h0A1.057,1.057,0,0,1,58.625,218.695Z" transform="translate(-5.543 -18.502)"/><path class="ae" d="M58.625,223.1H52.5a1.112,1.112,0,0,1-1.1-1.1h0a1.112,1.112,0,0,1,1.1-1.1h6.128a1.112,1.112,0,0,1,1.1,1.1h0A1.112,1.112,0,0,1,58.625,223.1Z" transform="translate(-5.543 -18.878)"/><path class="ae" d="M58.625,227.395H52.5a1.112,1.112,0,0,1-1.1-1.1h0a1.112,1.112,0,0,1,1.1-1.1h6.128a1.112,1.112,0,0,1,1.1,1.1h0A1.057,1.057,0,0,1,58.625,227.395Z" transform="translate(-5.543 -19.245)"/><path class="af" d="M164.785,71.738a5.92,5.92,0,0,0-8.323,3.292L148.232,97.9a31.564,31.564,0,0,1-19.206,19.115l-20.212,7.134a3.025,3.025,0,0,0-1.829,3.841L109,133.564a2.879,2.879,0,0,0,3.75,1.738l20.212-7.134a43.214,43.214,0,0,0,26.431-26.248l8.231-22.682A6.282,6.282,0,0,0,164.785,71.738Z" transform="translate(-10.277 -6.08)"/><path class="i" d="M164.947,71.766a3.822,3.822,0,0,0-.915-.366,5.973,5.973,0,0,1,.274,4.847l-8.231,22.682a43.439,43.439,0,0,1-26.431,26.248l-20.212,7.134c-.274.091-.457.091-.732.183l.366,1.006a2.879,2.879,0,0,0,3.75,1.738l20.212-7.134a43.214,43.214,0,0,0,26.431-26.248l8.231-22.682A6.057,6.057,0,0,0,164.947,71.766Z" transform="translate(-10.438 -6.108)"/><path class="ag" d="M230.318,199.436h63.838a3.045,3.045,0,0,0,3.018-3.018h0a3.045,3.045,0,0,0-3.018-3.018H230.318a3.045,3.045,0,0,0-3.018,3.018h0A3.045,3.045,0,0,0,230.318,199.436Z" transform="translate(-20.569 -16.529)"/><path class="ah" d="M294.156,196.846H230.318a2.948,2.948,0,0,1-2.652-1.646,2.963,2.963,0,0,0,2.652,4.39h63.838a3.045,3.045,0,0,0,3.018-3.018,2.581,2.581,0,0,0-.366-1.372A3.053,3.053,0,0,1,294.156,196.846Z" transform="translate(-20.569 -16.683)"/><g transform="translate(209.475 88.248)"><path class="ai" d="M312.338,185.214H230.3V110.493A13.993,13.993,0,0,1,244.293,96.5h50.851a31.07,31.07,0,0,1,31.1,31.1V171.13A13.822,13.822,0,0,1,312.338,185.214Z" transform="translate(-230.3 -96.5)"/><path class="aj" d="M255.368,96.5H244.393A13.993,13.993,0,0,0,230.4,110.493v74.721h10.975V110.493A13.935,13.935,0,0,1,255.368,96.5Z" transform="translate(-230.309 -96.5)"/><g transform="translate(38.539 36.675)"><path class="ak" d="M297.847,150.966c0-3.841-4.573-3.567-10.975-3.567-6.4.091-12.072-.091-12.072,3.658,0,3.841,5.213,6.859,11.524,6.859C292.726,157.917,297.847,154.808,297.847,150.966Z" transform="translate(-272.64 -137.522)"/><path class="al" d="M287.727,147.5h-2.469c5.122,0,8.506.183,8.6,3.567,0,3.292-3.841,6.128-9.054,6.859a10.362,10.362,0,0,0,2.378.091c6.4-.091,11.524-3.2,11.432-7.042C298.61,147.13,294.037,147.4,287.727,147.5Z" transform="translate(-273.494 -137.527)"/><path class="am" d="M288.241,154.243a10.505,10.505,0,0,0,5.579.091,5.887,5.887,0,0,0,2.469-1.006,3.371,3.371,0,0,0,1.372-2.195c.183-1.646-1.28-3.11-2.744-3.841a8.4,8.4,0,0,0-6.128-.915,6.185,6.185,0,0,0-4.3,3.933C283.851,152.14,286.686,153.786,288.241,154.243Z" transform="translate(-273.46 -137.415)"/><path class="an" d="M278.032,154.649a9.245,9.245,0,0,0,4.481.64c1.463-.091,3.2-.64,3.75-2.012a2.719,2.719,0,0,0-.091-2.378,5.282,5.282,0,0,0-1.646-1.829,6.864,6.864,0,0,0-5.3-1.28,5.247,5.247,0,0,0-3.933,3.11C274.648,152.545,276.66,154.1,278.032,154.649Z" transform="translate(-272.671 -137.546)"/><path class="ao" d="M298.469,150.385a2.155,2.155,0,0,1-1.189,2.927c-.915.183-1.738-.457-2.561-.732a3.61,3.61,0,0,0-2.927.366c-1.006.64-1.829,1.829-3.018,1.738-1.1-.091-1.829-1.372-2.927-1.555-1.28-.274-2.378,1.006-3.658,1.189-1.1.183-2.1-.549-3.2-.732a14.48,14.48,0,0,0-3.384.274,3.079,3.079,0,0,1-2.927-1.1,2.461,2.461,0,0,1,.732-2.927,6.881,6.881,0,0,1,3.018-1.28c1.829-.366,3.75-.64,5.67-.915a44.407,44.407,0,0,1,9.237-.549C293.621,147.458,297.371,147.915,298.469,150.385Z" transform="translate(-272.438 -137.489)"/><path class="ap" d="M277.7,150.979a52.726,52.726,0,0,1,12.255,4.3,14.873,14.873,0,0,1,4.664-3.933C289.5,149.15,283.1,149.241,277.7,150.979Z" transform="translate(-272.888 -137.718)"/><path class="aq" d="M297.747,148.051c0,3.841-4.573,3.658-10.883,3.658-6.4.091-12.072.274-12.164-3.567,0-3.841,5.122-6.951,11.432-7.042C292.534,141.191,297.747,144.21,297.747,148.051Z" transform="translate(-272.631 -136.984)"/><path class="am" d="M288.041,150.943a10.505,10.505,0,0,0,5.579.091,5.887,5.887,0,0,0,2.469-1.006,3.371,3.371,0,0,0,1.372-2.195c.183-1.646-1.28-3.11-2.744-3.841a8.4,8.4,0,0,0-6.128-.915,6.185,6.185,0,0,0-4.3,3.933C283.651,148.84,286.486,150.395,288.041,150.943Z" transform="translate(-273.443 -137.133)"/><path class="an" d="M277.433,150.149a9.245,9.245,0,0,0,4.481.64c1.463-.091,3.2-.64,3.75-2.012a2.719,2.719,0,0,0-.091-2.378,5.282,5.282,0,0,0-1.646-1.829,6.864,6.864,0,0,0-5.3-1.28,5.247,5.247,0,0,0-3.933,3.11C274.049,148.045,276.152,149.6,277.433,150.149Z" transform="translate(-272.62 -137.162)"/><path class="ao" d="M272.684,146.087a2.155,2.155,0,0,0,1.189,2.927c.915.183,1.646-.457,2.561-.732a3.291,3.291,0,0,1,2.927.366c1.006.64,1.829,1.738,3.018,1.646,1.1-.091,1.829-1.372,2.927-1.646,1.28-.274,2.378,1.006,3.658,1.189,1.1.091,2.1-.549,3.2-.732a14.481,14.481,0,0,1,3.384.274,2.947,2.947,0,0,0,2.927-1.189,2.461,2.461,0,0,0-.732-2.927,5.853,5.853,0,0,0-3.018-1.189c-1.829-.366-3.75-.549-5.67-.823a38.909,38.909,0,0,0-9.237-.366C277.531,142.977,273.69,143.526,272.684,146.087Z" transform="translate(-272.444 -137.124)"/><path class="ak" d="M297.747,143.551c0,3.841-4.573,3.658-10.883,3.658-6.4.091-12.072.274-12.164-3.567,0-3.841,5.122-6.951,11.432-7.042C292.534,136.6,297.747,139.71,297.747,143.551Z" transform="translate(-272.631 -136.6)"/><path class="al" d="M287.078,136.7a19.315,19.315,0,0,0-2.378.183c5.213.64,9.146,3.384,9.146,6.676s-3.475,3.658-8.506,3.658h2.469c6.4-.091,10.883.091,10.883-3.658C298.6,139.718,293.389,136.608,287.078,136.7Z" transform="translate(-273.486 -136.608)"/></g><path class="ar" d="M300.386,96.5H290.6a27.725,27.725,0,0,1,5.3,7.317c3.475,6.859,5.3,14.816,10.518,20.487,4.39,4.756,10.7,7.408,17.1,8.506a47,47,0,0,0,8.048.64V127.6A31.266,31.266,0,0,0,300.386,96.5Z" transform="translate(-235.451 -96.5)"/><path class="as" d="M325.986,130.348c-6.4-1.1-12.713-3.75-17.1-8.506-5.213-5.67-7.042-13.627-10.518-20.487a26.565,26.565,0,0,0-3.11-4.756H290.5a27.726,27.726,0,0,1,5.3,7.317c3.475,6.859,5.3,14.816,10.518,20.487,4.39,4.756,10.7,7.408,17.1,8.506a47,47,0,0,0,8.048.64V130.9Q328.729,130.76,325.986,130.348Z" transform="translate(-235.442 -96.509)"/></g></g></g></svg>